<svg width="25" height="25" viewBox="0 0 25 25" fill="none" xmlns="http://www.w3.org/2000/svg">
<path d="M5.95238 0C2.67183 0 0 2.67183 0 5.95238V19.0476C0 22.3282 2.67183 25 5.95238 25H19.0476C22.3282 25 25 22.3282 25 19.0476V5.95238C25 2.67183 22.3282 0 19.0476 0H5.95238ZM5.35714 7.14286H19.6429C19.75 7.14286 19.8511 7.15495 19.9463 7.18471L14.0951 13.0301C13.2141 13.9111 11.7801 13.9111 10.8991 13.0301L5.05371 7.18471C5.14895 7.15495 5.25 7.14286 5.35714 7.14286ZM4.20852 8.0299L8.68443 12.5L4.20852 16.9701C4.17876 16.8749 4.16667 16.7738 4.16667 16.6667V8.33333C4.16667 8.22619 4.17876 8.12514 4.20852 8.0299ZM20.7915 8.0299C20.8212 8.12514 20.8333 8.22619 20.8333 8.33333V16.6667C20.8333 16.7738 20.8212 16.8749 20.7915 16.9701L16.3098 12.5L20.7915 8.0299ZM9.52381 13.3394L10.0539 13.8753C10.7266 14.5479 11.6132 14.881 12.4942 14.881C13.3811 14.881 14.2618 14.5479 14.9344 13.8753L15.4704 13.3394L19.9463 17.8153C19.8511 17.8451 19.75 17.8571 19.6429 17.8571H5.35714C5.25 17.8571 5.14895 17.8451 5.05371 17.8153L9.52381 13.3394Z" fill="#00B4D8"/>
</svg>
