<svg width="25" height="25" viewBox="0 0 25 25" fill="none" xmlns="http://www.w3.org/2000/svg">
<path d="M8.58207 25C8.96848 24.8294 9.23913 24.4352 9.23913 23.9763V20.9653C9.23913 20.8555 9.24783 20.7411 9.26141 20.6252C9.2538 20.6274 9.24674 20.6291 9.23913 20.6307C9.23913 20.6307 7.6087 20.6307 7.28261 20.6307C6.46739 20.6307 5.76087 20.2962 5.43478 19.6271C5.05435 18.9022 4.8913 17.6755 3.91304 17.0064C3.75 16.8949 3.8587 16.7276 4.18478 16.7276C4.51087 16.7834 5.21739 17.2295 5.65217 17.8428C6.1413 18.4562 6.63043 18.958 7.5 18.958C8.85163 18.958 9.57609 18.8883 10.012 18.6485C10.5196 17.874 11.2223 17.2852 11.9565 17.2852V17.2713C8.87609 17.1698 6.90815 16.1193 5.99185 14.4973C4 14.5207 2.26576 14.7231 1.27609 14.8915C1.24457 14.7092 1.21739 14.5257 1.19402 14.3412C2.17065 14.1761 3.82609 13.9804 5.72935 13.943C5.66848 13.7891 5.61576 13.6313 5.5712 13.4696C3.66304 13.3704 2.0163 13.4479 1.12174 13.5237C1.11087 13.3386 1.0962 13.1541 1.09402 12.9667C1.99022 12.8914 3.59239 12.8162 5.45163 12.9048C5.4087 12.626 5.38098 12.3411 5.38098 12.0445C5.38098 11.0966 5.70707 10.0929 6.30489 9.25651C6.03315 8.30861 5.65272 6.3013 6.41359 5.57643C7.88098 5.57643 8.91359 6.3013 9.40272 6.74737C10.3261 6.3565 11.3587 6.13346 12.5 6.13346C13.6413 6.13346 14.6739 6.3565 15.5435 6.74681C16.0326 6.30074 17.0652 5.57588 18.5326 5.57588C19.3478 6.3565 18.913 8.36382 18.6413 9.25596C19.2391 10.0923 19.5652 11.0402 19.5109 12.0439C19.5109 12.3138 19.4864 12.5742 19.4511 12.8295C21.3527 12.7336 22.9984 12.8106 23.9098 12.8864C23.9087 13.0743 23.8918 13.2578 23.8821 13.4434C22.9739 13.3665 21.287 13.2873 19.3391 13.3938C19.2908 13.5812 19.2321 13.7635 19.1625 13.9402C21.0897 13.9659 22.7848 14.1572 23.8082 14.3244C23.7848 14.5095 23.7576 14.693 23.7261 14.8748C22.687 14.7041 20.9158 14.5045 18.9005 14.4945C17.9957 16.0992 16.0636 17.1458 13.0435 17.2679V17.2852C14.4565 17.2852 15.7609 19.4598 15.7609 20.9653V23.9763C15.7609 24.4352 16.0315 24.8294 16.4179 25C21.3967 23.3094 25 18.4918 25 12.8245C25 5.75319 19.3929 0 12.5 0C5.60707 0 0 5.75319 0 12.8245C0 18.4918 3.60326 23.3094 8.58207 25Z" fill="#00B4D8"/>
</svg>
