<svg width="50" height="51" viewBox="0 0 50 51" fill="none" xmlns="http://www.w3.org/2000/svg">
<rect opacity="0.25" y="0.5" width="50" height="50" rx="8" fill="#00B4D8"/>
<path d="M30.0351 15.5837C33.5528 15.5837 35.9163 18.0442 35.9163 21.7171V30.2733C35.9163 30.4306 35.8882 30.5712 35.8799 30.7233C35.8747 30.8119 35.8757 30.9004 35.8684 30.9889C35.8643 31.0285 35.8528 31.065 35.8486 31.1046C35.8143 31.4317 35.7611 31.7442 35.6872 32.0473C35.6684 32.1285 35.6466 32.2067 35.6247 32.2858C35.5413 32.5796 35.4434 32.8598 35.3257 33.1275C35.2913 33.2025 35.2538 33.2744 35.2184 33.3483C35.0913 33.6035 34.9538 33.8483 34.7945 34.0754L34.6403 34.2754C34.4747 34.49 34.3018 34.6952 34.1059 34.8817C34.0424 34.9421 33.9705 34.9942 33.9038 35.0514C33.7028 35.2244 33.4976 35.39 33.2716 35.5317C33.1903 35.5827 33.1007 35.6202 33.0174 35.666C32.7872 35.7931 32.5549 35.9171 32.3018 36.0129C32.1976 36.0525 32.082 36.0733 31.9736 36.1077C31.7247 36.1848 31.4788 36.265 31.2111 36.3108C31.1438 36.3226 31.0744 36.331 31.0041 36.3375L30.5768 36.3681C30.3955 36.3817 30.2236 36.4171 30.0351 36.4171H20.9559C20.5643 36.4171 20.1903 36.3775 19.8288 36.3181C19.8153 36.316 19.8028 36.3139 19.7903 36.3119C18.3809 36.0692 17.2111 35.389 16.3913 34.3629C16.382 34.3629 16.382 34.3525 16.3726 34.3431C15.5486 33.3056 15.083 31.9108 15.083 30.2733V21.7171C15.083 18.0442 17.4486 15.5837 20.9559 15.5837H30.0351ZM30.0351 17.0369H20.9559C18.2715 17.0369 16.5372 18.8775 16.5372 21.7171V30.2733C16.5372 31.0702 16.6851 31.7817 16.9382 32.3973C16.9705 32.3587 18.9882 29.8983 18.9976 29.89C19.7184 29.0671 21.0715 27.84 22.8476 28.5827C23.2747 28.7598 23.6497 29.0087 23.9934 29.2275C24.5903 29.6264 24.9413 29.8139 25.3059 29.7827C25.457 29.7619 25.5986 29.7171 25.733 29.6337C26.3143 29.2754 27.957 26.8796 28.0559 26.7494C29.1913 25.2702 30.9413 24.8744 32.3997 25.7494C32.4976 25.8077 32.8973 26.0819 33.3307 26.3908L33.6578 26.6261C33.9828 26.8622 34.289 27.0923 34.4632 27.24V21.7171C34.4632 18.8775 32.7288 17.0369 30.0351 17.0369ZM21.8323 19.75C22.559 19.75 23.2171 20.0556 23.6885 20.5432C24.1619 21.0136 24.4586 21.662 24.4586 22.3697C24.4586 23.7811 23.2777 24.9583 21.8595 24.9583C20.6129 24.9583 19.5501 24.0475 19.3119 22.8684C19.2725 22.6914 19.2503 22.5095 19.2503 22.3215C19.2503 20.9 20.405 19.75 21.8323 19.75Z" fill="#00B4D8"/>
</svg>
