<svg width="50" height="51" viewBox="0 0 50 51" fill="none" xmlns="http://www.w3.org/2000/svg">
<rect opacity="0.25" y="0.5" width="50" height="50" rx="8" fill="#00B4D8"/>
<path d="M21.6247 16.1049C22.2809 16.1249 22.9164 16.2394 23.532 16.4488H23.5934C23.6351 16.4686 23.6664 16.4905 23.6872 16.5103C23.9174 16.5842 24.1351 16.6676 24.3434 16.7821L24.7393 16.9592C24.8955 17.0426 25.083 17.1978 25.1872 17.2613C25.2914 17.3228 25.4059 17.3863 25.4997 17.4582C26.657 16.5738 28.0622 16.0946 29.5101 16.1049C30.1674 16.1049 30.8236 16.1978 31.4476 16.4071C35.2924 17.6571 36.6778 21.8759 35.5205 25.5634C34.8643 27.4478 33.7914 29.1676 32.3862 30.5728C30.3747 32.5207 28.1674 34.2499 25.7914 35.7394L25.5309 35.8967L25.2601 35.729C22.8757 34.2499 20.6559 32.5207 18.6257 30.5624C17.2299 29.1571 16.1559 27.4478 15.4893 25.5634C14.3122 21.8759 15.6976 17.6571 19.5841 16.3853C19.8861 16.2811 20.1976 16.2082 20.5101 16.1676H20.6351C20.9278 16.1249 21.2184 16.1049 21.5101 16.1049H21.6247ZM30.9059 19.3967C30.4789 19.2499 30.0101 19.4801 29.8539 19.9176C29.708 20.3551 29.9372 20.8342 30.3747 20.9894C31.0424 21.2394 31.4893 21.8967 31.4893 22.6249V22.6571C31.4695 22.8957 31.5414 23.1259 31.6872 23.303C31.833 23.4801 32.0518 23.5832 32.2809 23.6051C32.708 23.5936 33.0726 23.2509 33.1039 22.8124V22.6884C33.1351 21.229 32.2507 19.9071 30.9059 19.3967Z" fill="#00B4D8"/>
</svg>
