<svg width="50" height="50" viewBox="0 0 50 50" fill="none" xmlns="http://www.w3.org/2000/svg">
<path d="M35.3282 15.6897C34.8071 15.155 34.036 14.9557 33.317 15.1654L16.5497 20.0413C15.791 20.2521 15.2533 20.8571 15.1085 21.6257C14.9605 22.408 15.4774 23.401 16.1526 23.8162L21.3954 27.0385C21.9331 27.3688 22.6272 27.286 23.0721 26.8372L29.0756 20.7963C29.3778 20.4817 29.878 20.4817 30.1803 20.7963C30.4825 21.1004 30.4825 21.5932 30.1803 21.9078L24.1663 27.9497C23.7203 28.3975 23.6369 29.0948 23.9652 29.6358L27.1686 34.9312C27.5438 35.5603 28.1899 35.9168 28.8985 35.9168C28.9818 35.9168 29.0756 35.9168 29.159 35.9063C29.9718 35.8015 30.6179 35.2457 30.8576 34.4593L35.8284 17.7135C36.0472 17.0005 35.8492 16.2245 35.3282 15.6897Z" fill="#00B4D8"/>
<rect opacity="0.25" width="50" height="50" rx="8" fill="#00B4D8"/>
</svg>
