<svg width="50" height="51" viewBox="0 0 50 51" fill="none" xmlns="http://www.w3.org/2000/svg">
<path d="M29.8656 15.5833C33.0833 15.5833 34.875 17.4375 34.875 20.6146V31.375C34.875 34.6042 33.0833 36.4167 29.8656 36.4167H21.1354C17.9687 36.4167 16.125 34.6042 16.125 31.375V20.6146C16.125 17.4375 17.9687 15.5833 21.1354 15.5833H29.8656ZM21.4167 29.8958C21.1042 29.8646 20.8021 30.0104 20.6354 30.2813C20.4687 30.5417 20.4687 30.8854 20.6354 31.1563C20.8021 31.4167 21.1042 31.5729 21.4167 31.5313H29.5833C29.999 31.4896 30.3125 31.1344 30.3125 30.7188C30.3125 30.2917 29.999 29.9375 29.5833 29.8958H21.4167ZM29.5833 25.1448H21.4167C20.9677 25.1448 20.6042 25.5104 20.6042 25.9583C20.6042 26.4063 20.9677 26.7708 21.4167 26.7708H29.5833C30.0312 26.7708 30.3958 26.4063 30.3958 25.9583C30.3958 25.5104 30.0312 25.1448 29.5833 25.1448ZM24.5302 20.4271H21.4167V20.4375C20.9677 20.4375 20.6042 20.8021 20.6042 21.25C20.6042 21.6979 20.9677 22.0625 21.4167 22.0625H24.5302C24.9792 22.0625 25.3438 21.6979 25.3438 21.2386C25.3438 20.7917 24.9792 20.4271 24.5302 20.4271Z" fill="#00B4D8"/>
<rect opacity="0.25" y="0.5" width="50" height="50" rx="8" fill="#00B4D8"/>
</svg>
